# xmcd
#
# Track frame offsets: 
#        150
#        21135
#        44050
#        65883
#        88301
#        111927
#        132595
#        152607
#        175094
#        195453
#        215402
#        238909
#        263554
#        301189
#
# Disc length: 4439 seconds
#
# Revision: 0
# Processed by: cddbd v1.5.2PL0 Copyright (c) Steve Scherf et al.
# Submitted via: ExactAudioCopy v1.0b3
#
DISCID=cb11550e
DTITLE=Various Artist - Tripomatic Techno Generations
DYEAR=1900
DGENRE=
TTITLE0=Return Of The Native - The Lost Tale
TTITLE1=Space Rangers - The Theme (Original Mix)
TTITLE2=Medicen Man - Captageon
TTITLE3=Return Of The Native - Day After
TTITLE4=Space Rangers - Peppies
TTITLE5=Medicen Man - Transpotter
TTITLE6=Space Rangers - Mind Storm
TTITLE7=Return Of The Native - Quick and Fast
TTITLE8=Cosmic Junkie - I'll Make You Sick
TTITLE9=Tribal Warriors - Blokhaus
TTITLE10=The Silence - Psychick Is Dead
TTITLE11=Tribal Warriors - Arctic Cat
TTITLE12=Groovedealer - Solaris
TTITLE13=Menthol - My Name Is Techno (Rmx)
EXTD=
EXTT0=
EXTT1=
EXTT2=
EXTT3=
EXTT4=
EXTT5=
EXTT6=
EXTT7=
EXTT8=
EXTT9=
EXTT10=
EXTT11=
EXTT12=
EXTT13=
PLAYORDER=
